<svg xmlns="http://www.w3.org/2000/svg" enable-background="new 0 0 1200 1200" height="1200" viewBox="0 0 1200 1200" width="1200"><path d="m1199.398 403.537-50.323 288.696c-6.206 31.891-31.615 51.282-60.917 51.646h-733.658l-14.566 82.106h699.226c36.818 2.798 61.793 28.88 62.242 62.24-2.678 36.743-28.758 61.786-62.242 62.242h-773.387c-41.827-3.762-66.768-37.103-62.242-74.16l33.107-180.104-50.323-505.88-143.023-45.023c-34.951-13.877-49.216-45.495-41.053-78.133 13.573-34.015 46.096-49.556 78.133-41.053l182.752 58.269c24.62 9.229 38.783 29.382 42.377 52.972l10.594 100.646 829.006 92.7c38.09 8.251 58.769 38.422 54.297 72.836zm-744.126 677.619c0 52.476-42.54 95.017-95.018 95.017-52.477 0-95.017-42.541-95.017-95.017 0-52.478 42.541-95.019 95.017-95.019 52.477.001 95.018 42.543 95.018 95.019zm567.252 0c0 52.476-42.541 95.017-95.019 95.017-52.477 0-95.017-42.541-95.017-95.017 0-52.478 42.54-95.019 95.017-95.019 52.478.001 95.019 42.543 95.019 95.019z"/></svg>