<svg xmlns="http://www.w3.org/2000/svg" role="img" viewBox="-1.33 6.67 615.16 597.16"><title>kcna_color.svg</title><defs><style>.cls-1{fill:none}.cls-2{fill:#427af4}.cls-3{fill:#fff}</style></defs><path d="M365.299 475.684l-3.855 9.408h7.709l-3.854-9.408zM96.361 153.521L306.504 53.14l210.143 100.247.137.595h8.346l-1.502-6.53L306.504 43.737 89.381 147.452l-1.502 6.53h8.376l.106-.461zm445.93 111.387l17.391 75.631h8.372l-17.401-75.631h-8.362z" class="cls-1"/><path d="M193.92755 551.69421v-.00006H419.215l84.6846-105.47149-396.58173-2.10944zm216.50055-83.4707h21.8839v5.67774h-15.5426v5.8858h13.6776v5.67859h-13.67759v6.09216h15.74976v5.67859H410.4281zm-29.962 0h24.0398v5.885h-8.82941v23.12793H389.294v-23.128h-8.82788zm-18.02746-.20721h5.8858l12.43433 29.22009h-6.67352l-2.65259-6.50745h-12.26823l-2.65265 6.50745h-6.50739zm-24.61871.20721h6.384v29.01288H337.82zm-33.19507 14.50641a14.74527 14.74527 0 0 1 14.47921-15.00659q.32447-.00578.64893.00268c5.47131 0 8.74561 1.82379 11.43933 4.47644l-4.06195 4.6836c-2.23822-2.031-4.51758-3.275-7.41852-3.275-4.89087 0-8.415 4.062-8.415 9.03589v.083c0 4.97388 3.44037 9.11816 8.415 9.11816 3.31537 0 5.34638-1.32635 7.62574-3.39843l4.062 4.10308a14.83182 14.83182 0 0 1-11.8949 5.1811 14.645 14.645 0 0 1-14.88052-14.40561q-.00422-.25764.0007-.51526zm-36.26374 0c0-8.24817 6.50745-15.00391 15.46027-15.00391 8.95123 0 15.3764 6.67273 15.3764 14.9209v.083c0 8.24817-6.50738 15.00391-15.46026 15.00391-8.95282 0-15.37641-6.67347-15.37641-14.92084zm-17.48812 2.77679c-5.84461-1.49237-9.61554-3.10815-9.61554-8.86975v-.08307c0-5.26336 4.228-8.74481 10.155-8.74481a16.8002 16.8002 0 0 1 10.77661 3.68866l-3.317 4.8078c-2.56885-1.78265-5.09808-2.8598-7.54352-2.8598s-3.72979 1.11908-3.72979 2.52844v.08228c0 1.9068 1.24328 2.52844 6.25909 3.8136 5.88574 1.53357 9.20117 3.64758 9.20117 8.70373v.08307c0 5.7608-4.39416 8.994-10.65167 8.994a18.46526 18.46526 0 0 1-12.311-4.64173l3.77253-4.51837a13.31 13.31 0 0 0 8.6618 3.52344c2.61151 0 4.187-1.03607 4.187-2.73572v-.083c0-1.61661-.99493-2.44547-5.84466-3.68876zm-27.14478 0c-5.84466-1.49237-9.6156-3.10815-9.6156-8.86975v-.08307c0-5.26336 4.22809-8.74481 10.155-8.74481a16.80022 16.80022 0 0 1 10.77661 3.68866l-3.317 4.8078c-2.56879-1.78265-5.09808-2.8598-7.54346-2.8598s-3.72986 1.11908-3.72986 2.52844v.08228c0 1.9068 1.24329 2.52844 6.2591 3.8136 5.8858 1.53357 9.20119 3.64758 9.20119 8.70373v.08307c0 5.7608-4.39417 8.994-10.65168 8.994a18.465 18.465 0 0 1-12.31091-4.64173l3.77252-4.51837a13.31 13.31 0 0 0 8.66181 3.52344c2.61151 0 4.18695-1.03607 4.18695-2.73572v-.083c0-1.61661-.99491-2.44547-5.84464-3.68876zm-26.316-17.49041l12.43432 29.22009h-6.67346l-2.65265-6.50745h-12.2682l-2.65265 6.50745h-6.50739l12.43433-29.22009zM262.626 304.864h7.709l-3.855-9.408-3.854 9.408z" class="cls-1"/><path d="M194.386 475.684l-3.854 9.408h7.709l-3.855-9.408zm89.43541 16.16408c5.13916 0 8.70288-4.062 8.70288-9.03509v-.08307a8.815 8.815 0 0 0-8.50583-9.11368q-.14039-.00485-.28091-.00522c-5.13916 0-8.70447 4.062-8.70447 9.03589v.083a8.81471 8.81471 0 0 0 8.506 9.113q.14109.00484.28233.00517zM70.747 264.908h-8.376l-17.39 75.631h8.376l17.39-75.631z" class="cls-1"/><path d="M514.395 446.279l-91.293 113.59H189.907L96.759 444.057l-9.843-.052 99.256 123.293h240.941l97.132-120.967-9.85-.052zm19.35592-181.37141h-454.65l-17.3707 75.63111h489.42749zm-258.48377 52.10077l-2.65259-6.50738h-12.26825l-2.65265 6.50738h-6.50738l12.43433-29.22009h5.88574l12.43432 29.22009zm37.961 0h-5.42865l-14.0509-18.44427v18.44427h-6.30017v-29.01288h5.88574l13.59533 17.86377v-17.86377h6.29865zm34.731-14.50641c0 8.1651-6.30023 14.50641-15.41754 14.50641h-11.316v-29.01288h11.316c9.11731 0 15.41754 6.2583 15.41754 14.4234zM306.37 62.253l-191.945 91.729h384.156L306.37 62.253z" class="cls-1"/><path d="M332.54163 293.75629H327.608v17.49127h4.9336c5.22137 0 8.744-3.52344 8.744-8.6626v-.083a8.33214 8.33214 0 0 0-8.74395-8.74566z" class="cls-1"/><path d="M372.217 394.802h10.541l-5.27-12.865-5.271 12.865zm-185.17635-3.11737v-.11383c0-6.8-4.98737-12.46759-12.0152-12.46759-7.027 0-11.90124 5.55365-11.90124 12.35449v.1131c0 6.80078 4.98736 12.46832 12.01513 12.46832 7.02625 0 11.90131-5.55444 11.90131-12.35449zm78.05096-12.07129h-6.74469V403.529h6.74469c7.14014 0 11.95667-4.81732 11.95667-11.84436v-.11383c0-7.02705-4.81653-11.95747-11.95667-11.95747z" class="cls-2"/><path d="M601.31055 367.76044l-.00006-.00006-50.8191-220.72388a39.45708 39.45708 0 0 0-21.32464-26.44806L323.53632 22.412a41.162 41.162 0 0 0-19.10913-3.8772 38.06041 38.06041 0 0 0-15.09339 3.8772L83.70331 120.72687A39.76138 39.76138 0 0 0 62.37866 147.175L11.83649 367.89886a38.71579 38.71579 0 0 0 5.40039 29.90986 24.48956 24.48956 0 0 0 2.21557 3.04638L161.80133 577.822a39.98961 39.98961 0 0 0 30.74072 14.678h228.20142a39.98958 39.98958 0 0 0 30.74072-14.678l142.34888-176.9668a39.96484 39.96484 0 0 0 7.47748-33.09476zM186.17236 567.2981L86.9162 444.0047l-51.12409-63.50494 9.1886-39.96106 17.39051-75.63111H37.23737l25.21038-110.92584H87.879l1.50171-6.52985L306.50427 43.73657 523.62793 147.4519l1.50238 6.52985h21.35736l30.2525 110.92584h-26.08764L568.054 340.5387l9.16253 39.82257-.00006.00006-52.97117 65.96954-97.1322 120.96723z" class="cls-2"/><path d="M189.90692 559.86938h233.19464L514.395 446.2785l9.85034.05237 52.97113-65.96954.00006-.00006-9.16253-39.82257h-8.37159l-17.39111-75.63111h34.44891l-30.2525-110.92584h-29.70347l-.13678-.59473L306.50427 53.14014 96.361 153.52106l-.106.46069H62.44775L37.23737 264.90759h33.50976l-17.3905 75.63111h-8.37592l-9.1886 39.96106L86.9162 444.0047l9.84289.05237zm229.30808-8.17523H193.92755v.00006l-86.60968-107.581 396.58173 2.10944zM97.14691 404.03912c4.53333 0 7.31012-1.81353 10.427-4.64727l5.55445 5.61053c-4.081 4.36334-8.61438 7.084-16.26538 7.084A20.02372 20.02372 0 0 1 76.51721 392.39q-.00572-.35265.001-.70532v-.11383a20.162 20.162 0 0 1 19.79909-20.51849q.44288-.00787.88577.00366c7.481 0 11.95819 2.49365 15.64135 6.12067l-5.55365 6.4038c-3.05993-2.77679-6.17681-4.47723-10.14386-4.47723-6.68773 0-11.505 5.55365-11.505 12.35449v.1131c-.00006 6.80073 4.70416 12.46827 11.505 12.46827zm52.881-.56707v7.93414H121.522v-39.67h8.72742v31.7359zm3.97259-11.78742v-.11383c0-11.27728 8.89746-20.51483 21.1388-20.51483 12.24139 0 21.025 9.12366 21.025 20.40173v.1131c0 11.278-8.89746 20.51556-21.13885 20.51556-12.24132 0-21.02489-9.12445-21.02489-20.40173zm68.01307 12.29755c5.32745 0 8.55743-3.23 8.55743-9.52069v-22.72534h8.72822v22.38525c0 12.01434-6.74469 17.908-17.39953 17.908-10.6532 0-17.17169-5.95062-17.17169-17.62488v-22.66837h8.72821v22.4414c0 6.46076 3.23 9.80463 8.5574 9.80463zm27.60668 7.424v-39.67h15.4713c12.46753 0 21.08191 8.55737 21.08191 19.72155v.1131c0 11.16492-8.61438 19.83539-21.08191 19.83539zm64.16149 0v-39.67h8.04645l18.589 24.42492v-24.425h8.61431v39.67h-7.4248l-19.21222-25.219v25.219zm84.454-31.6228v-8.04724H431.105v8.04724h-12.07045v31.6228h-8.72669v-31.6228zm.39068 31.6228h-9.12365l-3.627-8.89746h-16.77463l-3.627 8.89746h-8.89746l17.00085-39.954h8.0481zm40.98536 0v-39.67H448.34v39.67zm16.66552-39.67h9.63459L476.282 399.675l10.37171-27.93884h9.4068L480.023 411.68933h-7.708zm74.70084 15.8114v7.7641h-18.70287v8.33044h21.53589v7.7641h-30.20557v-39.67H533.528v7.7641h-21.25273v8.0473zm-41.82654-163.445c-1.20447-.51624-2.75311-1.37659-4.99-2.23694-1.54858-.68829-3.09729-1.37659-4.47381-2.06488a25.6401 25.6401 0 0 1-3.44141-2.58105 9.16853 9.16853 0 0 1-2.23694-3.44141 15.22822 15.22822 0 0 1-.68823-4.99 10.61963 10.61963 0 0 1 3.95758-8.77557c2.58105-2.23694 6.36658-3.26935 10.84045-3.26935a42.431 42.431 0 0 1 6.71076.51624 35.12 35.12 0 0 1 5.16211 1.37652l-1.89276 8.77564a21.53342 21.53342 0 0 0-3.95765-1.20445 22.23077 22.23077 0 0 0-4.99-.51624c-3.4414 0-5.16211.86035-5.16211 2.92517a2.55165 2.55165 0 0 0 .17206 1.20453 2.29413 2.29413 0 0 0 .86035 1.03241c.6883.34418 1.20453.68829 1.89283 1.03247a25.33929 25.33929 0 0 0 2.92523 1.20447 31.41442 31.41442 0 0 1 5.8504 2.75311 15.76369 15.76369 0 0 1 3.61347 2.92523 7.61552 7.61552 0 0 1 1.89282 3.44141 15.49353 15.49353 0 0 1 .51617 4.30176 10.323 10.323 0 0 1-4.1297 8.77563c-2.92523 2.06482-6.88281 2.92517-12.04492 2.92517l-.00006-.00006a38.65039 38.65039 0 0 1-8.43146-.68829 30.54266 30.54266 0 0 1-4.818-1.37653l1.89282-9.11975a22.04558 22.04558 0 0 0 5.67828 1.89276 31.68423 31.68423 0 0 0 5.67835.51624 12.00583 12.00583 0 0 0 4.1297-.51624 2.43866 2.43866 0 0 0 1.20447-2.409c-.00009-1.03245-.68832-1.72075-1.72079-2.40898zM306.37024 62.25348l192.21063 91.72827H114.425zm159.72394 159.096l-24.4339-.34411a6.75317 6.75317 0 0 0 3.09729 5.50622q2.58105 2.06488 7.227 2.06488a32.18191 32.18191 0 0 0 5.8504-.51623 20.62 20.62 0 0 0 4.81793-1.37659l1.37653 9.11977a18.68581 18.68581 0 0 1-2.40894.86035c-1.03247.17206-2.06482.51623-3.26934.68829s-2.58112.34412-3.78559.51624a30.46385 30.46385 0 0 1-3.95758.172 23.681 23.681 0 0 1-8.94775-1.7207 16.44138 16.44138 0 0 1-9.98011-10.6684 24.184 24.184 0 0 1-1.20452-8.08729 24.6075 24.6075 0 0 1 1.7207-9.11981 18.02613 18.02613 0 0 1 3.95764-6.53864 16.78539 16.78539 0 0 1 5.8504-3.95764 17.82826 17.82826 0 0 1 6.7107-1.20453c5.33423 0 9.636 1.7207 12.73327 5.16217 3.09723 3.44141 4.81794 8.60352 4.81794 15.14221v2.23694c0 .86041-.17206 1.54866-.17206 2.0649zm-41.12494-23.40161v9.29181H412.064v13.76562a12.66622 12.66622 0 0 0 1.20452 5.67835c.86036 1.37659 2.40894 2.0649 4.81794 2.0649a23.417 23.417 0 0 0 3.61352-.34418 22.91651 22.91651 0 0 0 3.26929-.86035l1.37659 8.77563a21.11842 21.11842 0 0 1-4.30182 1.37659 28.38925 28.38925 0 0 1-5.85034.51617 18.165 18.165 0 0 1-7.227-1.20447 12.95546 12.95546 0 0 1-4.47388-3.4414 13.74876 13.74876 0 0 1-2.409-5.33423 27.38016 27.38016 0 0 1-.68823-6.88281V188.312l10.6684-1.89283v11.52875zm-53.1698 28.56372q2.58105 2.06488 7.227 2.06488a32.18126 32.18126 0 0 0 5.85034-.51623 20.62091 20.62091 0 0 0 4.818-1.37659l1.37653 9.11977a18.68663 18.68663 0 0 1-2.409.86035c-1.03241.17206-2.06482.51623-3.26928.68829-1.20453.17206-2.58112.34412-3.78559.51624a30.46154 30.46154 0 0 1-3.95764.172 23.68054 23.68054 0 0 1-8.94763-1.7207 16.44135 16.44135 0 0 1-9.9801-10.6684 24.18376 24.18376 0 0 1-1.20453-8.08729 24.6075 24.6075 0 0 1 1.7207-9.11981 17.16488 17.16488 0 0 1 9.808-10.49628 17.82817 17.82817 0 0 1 6.71076-1.20453c5.33417 0 9.636 1.7207 12.73321 5.16217 3.09723 3.44141 4.818 8.60352 4.818 15.14221v2.23694h.00006a13.28492 13.28492 0 0 1-.17206 1.7207h-24.434a6.75331 6.75331 0 0 0 3.09729 5.50631zm-34.24219-17.55121c-1.03241-1.54864-2.58105-2.23694-5.16211-2.23694-.68829 0-1.37659.17212-2.409.17212a9.84682 9.84682 0 0 0-2.409.17206V237.352h-10.66833v-37.85548c1.72071-.51623 4.1297-.86035 7.05487-1.37659a52.93383 52.93383 0 0 1 9.11976-.68829 22.87782 22.87782 0 0 1 8.08734 1.20453 9.46627 9.46627 0 0 1 5.16211 3.61346 13.46913 13.46913 0 0 1 2.75317 5.67835 30.31446 30.31446 0 0 1 .68823 7.227l-.17206 22.19709h-10.66839v-20.82058c0-3.61349-.51624-6.19448-1.37659-7.5711zm-26.15466-10.15216l-1.89282 9.11975a22.43792 22.43792 0 0 0-3.61347-.68829 30.82838 30.82838 0 0 0-4.1297-.34412 13.08415 13.08415 0 0 0-2.409.17206 6.74211 6.74211 0 0 0-2.23693.34412v30.11242h-10.66834v-37.1673a32.62488 32.62488 0 0 1 6.88281-2.06488 44.59662 44.59662 0 0 1 8.77564-.86035c.86035 0 1.37652.17211 2.23688.17211.68829.17206 1.54864.17206 2.409.34412a13.49952 13.49952 0 0 1 2.409.34412 6.105 6.105 0 0 1 2.23694.51625zM256.512 226.51166q2.58107 2.06478 7.22693 2.06482a32.17649 32.17649 0 0 0 5.8504-.51624 20.6229 20.6229 0 0 0 4.818-1.37652l1.37659 9.11975a18.71049 18.71049 0 0 1-2.409.86035c-1.03241.17206-2.06482.51617-3.26935.68823-1.20447.17212-2.58105.34418-3.78552.51624a30.46508 30.46508 0 0 1-3.95764.172 23.67962 23.67962 0 0 1-8.9477-1.7207 16.4419 16.4419 0 0 1-9.9801-10.66833 24.18491 24.18491 0 0 1-1.20447-8.08736 24.60659 24.60659 0 0 1 1.72071-9.11975 18.02632 18.02632 0 0 1 3.95764-6.5387 16.786 16.786 0 0 1 5.8504-3.95764 17.82779 17.82779 0 0 1 6.71069-1.20447c5.33423 0 9.636 1.72071 12.73328 5.16211 3.09723 3.44141 4.818 8.60352 4.818 15.14221v2.23694c0 .86035-.17212 1.54865-.17212 2.06482l-24.434-.34412a6.75336 6.75336 0 0 0 3.09726 5.50636zm-41.64123-28.9079a30.82852 30.82852 0 0 1 4.1297-.34412 17.77553 17.77553 0 0 1 7.05493 1.37659 12.79023 12.79023 0 0 1 5.33417 4.12964 18.31693 18.31693 0 0 1 3.09729 6.36664 32.338 32.338 0 0 1 1.03247 8.43145 27.38 27.38 0 0 1-1.20453 8.60352 16.39066 16.39066 0 0 1-3.78552 6.5387 17.03666 17.03666 0 0 1-6.19458 4.1297 25.465 25.465 0 0 1-8.43146 1.37658 31.79557 31.79557 0 0 1-3.95764-.17212l-4.1297-.51617c-1.20453-.17206-2.75312-.34412-4.1297-.51624-1.20453-.34411-2.409-.51617-3.26935-.86035v-54.7185l10.6684-1.89276v19.272a32.1095 32.1095 0 0 1 3.78555-1.20456zM158.4317 227.372a32.79415 32.79415 0 0 1-.68829-7.399V198.12h10.66839v20.64849c0 3.61347.34412 6.02246 1.37653 7.74317 1.03247 1.7207 2.58105 2.409 5.16217 2.409.68823 0 1.54858-.1721 2.40894-.1721a9.84565 9.84565 0 0 0 2.409-.17206V198.292h10.6684v37.8556c-1.7207.51623-4.1297.86035-7.05493 1.37659a52.93274 52.93274 0 0 1-9.11975.68823 22.87765 22.87765 0 0 1-8.08736-1.20447 10.7026 10.7026 0 0 1-5.16209-3.78552h.00006a26.103 26.103 0 0 1-2.58107-5.85043zm-27.18725-19.09985c1.03247-1.20453 2.23692-2.58112 3.26933-3.78558.86041-1.20453 2.06488-2.58106 2.92525-3.61347a30.5142 30.5142 0 0 0 2.409-2.92523h12.73322c-2.409 3.09729-4.99 6.02246-7.39905 8.77564-2.58105 2.75311-5.16211 5.67834-8.08728 8.60351l-.00006.00006c1.37659 1.20447 2.75317 2.92517 4.47388 4.30176 1.54864 1.89276 3.09721 3.78552 4.47381 5.8504 1.37659 2.06482 2.75318 3.95764 3.95764 6.02246s2.23694 3.78553 3.09729 5.50623h-12.3891c-.68829-1.20445-1.7207-2.581-2.58105-4.30174s-2.06488-3.09729-3.09729-4.818a44.056 44.056 0 0 0-3.44141-4.47381 23.85024 23.85024 0 0 0-3.61345-3.61353V237.18h-10.66842v-56.095l10.6684-1.89276v32.69342c1.03241-1.03246 2.23685-2.40905 3.26929-3.61351zm-52.14356 56.63544h454.65l17.4068 75.63111H61.73022z" class="cls-2"/><path d="M97.14691 379.10321c3.967 0 7.08392 1.70044 10.14386 4.47723l5.55365-6.4038c-3.68317-3.627-8.1604-6.12067-15.64136-6.12067A20.162 20.162 0 0 0 76.52184 390.685q-.01155.44278-.00365.88577v.11383a20.02376 20.02376 0 0 0 19.63947 20.40076q.35264.00667.70534.001c7.651 0 12.18438-2.72064 16.26538-7.084l-5.55445-5.61053c-3.11688 2.83374-5.89367 4.64727-10.427 4.64727-6.80085 0-11.50506-5.66754-11.50506-12.46832v-.1131c-.00002-6.80082 4.8173-12.35447 11.50504-12.35447zM121.522 371.736v39.67h28.506v-7.934h-19.779v-31.736h-8.727zm74.64231 19.8348v-.1131c0-11.27807-8.78357-20.40173-21.025-20.40173-12.24133 0-21.13879 9.23755-21.13879 20.51483v.11383c0 11.27728 8.78357 20.40173 21.0249 20.40173 12.24143 0 21.13889-9.23754 21.13889-20.51556zm-33.0401 0v-.1131c0-6.80084 4.87426-12.35449 11.90124-12.35449 7.02783 0 12.0152 5.66754 12.0152 12.46759v.11383c0 6.8-4.87506 12.35449-11.90131 12.35449-7.02777 0-12.01513-5.66754-12.01513-12.46832zm41.60379-19.83465v22.66839c0 11.67426 6.51849 17.62488 17.17169 17.62488 10.65484 0 17.39953-5.89368 17.39953-17.908v-22.38527H230.571v22.72534c0 6.29071-3.23 9.52069-8.55743 9.52069s-8.55738-3.34387-8.55738-9.80463v-22.4414zm81.44552 19.83465v-.1131c0-11.16418-8.61438-19.72155-21.08191-19.72155H249.6203v39.67h15.47131c12.46753.00004 21.08191-8.67043 21.08191-19.83535zm-9.12524.11383c0 7.027-4.81653 11.84436-11.95667 11.84436h-6.74469v-23.91565h6.74469c7.14014 0 11.95667 4.93042 11.95667 11.95746zM341.607 411.406h7.425v-39.67h-8.615v24.425l-18.589-24.425h-8.046v39.67h8.613v-25.219l19.212 25.219zm31.97051-39.95379l-17.00085 39.954h8.89746l3.627-8.89746h16.77465l3.627 8.89746h9.12365l-17.00085-39.954zm-1.36029 23.3493l5.27045-12.8645 5.27045 12.8645zM419.035 411.406v-31.623h12.07v-8.047h-32.869v8.047h12.072v31.623h8.727zm20.577-39.67h8.728v39.67h-8.728zm56.449 0h-9.407l-10.372 27.939-10.37-27.939h-9.635l16.038 39.953h7.708l16.038-39.953zm37.467 7.764v-7.764h-29.922v39.67H533.811V403.642h-21.536v-8.33h18.703v-7.764h-18.703V379.5h21.253z" class="cls-3"/><path d="M263.62061 287.78827l-12.43433 29.22009h6.50738l2.65265-6.50738h12.26825l2.65259 6.50738h6.67352l-12.43432-29.22009zm-.99494 17.07605l3.85474-9.40839 3.8548 9.40839zm44.30433.99468l-13.596-17.864h-5.886v29.013h6.301v-18.444l14.05 18.444h5.429v-29.013h-6.298v17.864zm25.61163-17.86352h-11.316v29.01288h11.316c9.11731 0 15.41754-6.34131 15.41754-14.50641v-.08307c0-8.1651-6.30023-14.4234-15.41754-14.4234zm8.744 14.58948c0 5.13916-3.52264 8.6626-8.744 8.6626H327.608v-17.49127h4.9336a8.3319 8.3319 0 0 1 8.744 8.74566zM266.148 208.61627a9.75312 9.75312 0 0 0-2.23694-1.7207 5.5192 5.5192 0 0 0-3.09729-.68829 8.3355 8.3355 0 0 0-3.09723.51623 5.93245 5.93245 0 0 0-2.23694 1.7207 10.51412 10.51412 0 0 0-1.20452 2.409 16.1134 16.1134 0 0 0-.68824 2.75311h-.17206v.17206h14.45392a15.493 15.493 0 0 0-.51623-2.75311c-.34417-1.03241-.51623-1.89276-1.20447-2.409zm115.11518-.00006a9.75676 9.75676 0 0 0-2.23687-1.7207 5.51934 5.51934 0 0 0-3.09729-.68823 8.33579 8.33579 0 0 0-3.09723.51617 5.93268 5.93268 0 0 0-2.23694 1.7207 10.51315 10.51315 0 0 0-1.20453 2.409 16.1117 16.1117 0 0 0-.68823 2.75317l-.17212-.00006v.17212h14.45392a18.9891 18.9891 0 0 0-.51618-2.75317c-.34417-1.03241-.51623-1.89276-1.20453-2.409zm72.95807.17212a9.75219 9.75219 0 0 0-2.23694-1.7207 5.51851 5.51851 0 0 0-3.09723-.6883 8.33441 8.33441 0 0 0-3.09722.51624 5.932 5.932 0 0 0-2.23694 1.7207 10.51274 10.51274 0 0 0-1.20453 2.409c-.34418.86035-.51624 1.7207-.86035 2.92517H455.942a18.99815 18.99815 0 0 0-.51624-2.75311c-.34416-1.03241-.51628-1.89276-1.20451-2.409zm-243.13598 19.78815c.68829 0 1.20451.17206 2.06488.17206a14.80321 14.80321 0 0 0 2.75311.172q4.64594 0 6.71075-3.09723a14.3269 14.3269 0 0 0 2.23694-8.43144c0-7.05493-2.409-10.6684-7.5711-10.6684a10.58936 10.58936 0 0 0-3.26935.34412 6.548 6.548 0 0 0-2.92523 1.37652z" class="cls-2"/><path d="M466.26624 217.04773c0-6.5387-1.72071-11.70081-4.81794-15.14221-3.09729-3.44147-7.399-5.16217-12.73327-5.16217a17.82786 17.82786 0 0 0-6.7107 1.20453 16.78526 16.78526 0 0 0-5.8504 3.95764 18.026 18.026 0 0 0-3.95764 6.53863 24.60754 24.60754 0 0 0-1.7207 9.11981 24.18406 24.18406 0 0 0 1.20452 8.0873 16.44138 16.44138 0 0 0 9.98011 10.6684 23.681 23.681 0 0 0 8.94775 1.7207 30.46386 30.46386 0 0 0 3.95758-.172c1.20447-.17212 2.58106-.34417 3.78559-.51623s2.23687-.51624 3.26934-.6883a18.68281 18.68281 0 0 0 2.40894-.86035l-1.37653-9.11976a20.61952 20.61952 0 0 1-4.81793 1.37658 32.18281 32.18281 0 0 1-5.8504.51624q-4.64589 0-7.227-2.06488a6.75319 6.75319 0 0 1-3.09729-5.50623l24.4339.34412c0-.51624.17206-1.20447.17206-2.06482zm-24.7782-3.09729c.34411-1.20447.51617-2.06482.86035-2.92517a10.51274 10.51274 0 0 1 1.20453-2.409 5.932 5.932 0 0 1 2.23694-1.7207 8.33441 8.33441 0 0 1 3.09722-.51624 5.51851 5.51851 0 0 1 3.09723.6883 9.75219 9.75219 0 0 1 2.23694 1.7207c.68823.51624.86035 1.37659 1.20447 2.409a18.99815 18.99815 0 0 1 .51624 2.75311zm48.17981 14.97009a12.00583 12.00583 0 0 1-4.1297.51624 31.68423 31.68423 0 0 1-5.67835-.51624 22.04634 22.04634 0 0 1-5.67828-1.89276l-1.89282 9.11975a30.54266 30.54266 0 0 0 4.818 1.37653 38.65158 38.65158 0 0 0 8.43146.68829l.00006.00006c5.16211 0 9.11969-.86035 12.04492-2.92517a10.323 10.323 0 0 0 4.1297-8.77563 15.49391 15.49391 0 0 0-.51617-4.30176 7.61554 7.61554 0 0 0-1.89283-3.44141 15.76342 15.76342 0 0 0-3.61346-2.92523 31.41442 31.41442 0 0 0-5.8504-2.75311 25.34017 25.34017 0 0 1-2.92524-1.20447c-.68829-.34418-1.20452-.68829-1.89282-1.03247a2.29413 2.29413 0 0 1-.86035-1.03241 2.5514 2.5514 0 0 1-.17206-1.20453c0-2.06482 1.72071-2.92517 5.16211-2.92517a22.23077 22.23077 0 0 1 4.99.51624 21.53309 21.53309 0 0 1 3.95764 1.20445l1.89276-8.77564a35.11832 35.11832 0 0 0-5.1621-1.37652 42.42976 42.42976 0 0 0-6.71076-.51624c-4.47388 0-8.2594 1.03241-10.84045 3.26935a10.61963 10.61963 0 0 0-3.95758 8.77557 15.22822 15.22822 0 0 0 .68823 4.99 9.16853 9.16853 0 0 0 2.23694 3.44141 25.64149 25.64149 0 0 0 3.4414 2.58105c1.37653.68829 2.92524 1.37659 4.47382 2.06488 2.23694.86035 3.78558 1.7207 4.99 2.23694 1.03247.68823 1.7207 1.37652 1.7207 2.40893a2.43865 2.43865 0 0 1-1.20437 2.40907zm-96.35956-9.63586h-.00006v-2.23694c0-6.5387-1.72077-11.70081-4.818-15.14221-3.09722-3.44147-7.399-5.16217-12.73321-5.16217a17.828 17.828 0 0 0-6.71076 1.20453 17.16484 17.16484 0 0 0-9.808 10.49627 24.60754 24.60754 0 0 0-1.7207 9.11981 24.18381 24.18381 0 0 0 1.20453 8.0873 16.44135 16.44135 0 0 0 9.9801 10.6684 23.68034 23.68034 0 0 0 8.94763 1.7207 30.46147 30.46147 0 0 0 3.95764-.172c1.20447-.17212 2.58106-.34417 3.78559-.51623 1.20446-.17206 2.23687-.51624 3.26928-.6883a18.68663 18.68663 0 0 0 2.409-.86035l-1.37653-9.11976a20.62041 20.62041 0 0 1-4.818 1.37658 32.18216 32.18216 0 0 1-5.85034.51624q-4.64593 0-7.227-2.06488a6.75319 6.75319 0 0 1-3.09729-5.50623h24.43408a13.29089 13.29089 0 0 0 .17204-1.72076zM368.53 213.77838v-.17212l.17212.00006a16.1117 16.1117 0 0 1 .68823-2.75317 10.51315 10.51315 0 0 1 1.20453-2.409 5.93268 5.93268 0 0 1 2.23694-1.7207 8.33579 8.33579 0 0 1 3.09723-.51617 5.51934 5.51934 0 0 1 3.09729.68823 9.75676 9.75676 0 0 1 2.23687 1.7207c.6883.51624.86036 1.37659 1.20453 2.409a18.9891 18.9891 0 0 1 .51618 2.75317zm-202.3552 23.22955a22.87743 22.87743 0 0 0 8.08736 1.20447 52.93059 52.93059 0 0 0 9.11975-.68823c2.92523-.51624 5.33423-.86035 7.05493-1.37659V198.292h-10.66839v30.28448a9.84573 9.84573 0 0 1-2.409.17206c-.86037 0-1.7207.1721-2.40893.1721-2.58112 0-4.1297-.68829-5.16217-2.409-1.03241-1.72071-1.37653-4.1297-1.37653-7.74317V198.12h-10.66841v21.853a32.79415 32.79415 0 0 0 .68829 7.399 26.10321 26.10321 0 0 0 2.58106 5.85041h-.00006a10.70263 10.70263 0 0 0 5.1621 3.78552zm183.42743.34412l.17206-22.19708a30.31454 30.31454 0 0 0-.68823-7.227 13.4691 13.4691 0 0 0-2.75317-5.67834 9.46629 9.46629 0 0 0-5.16211-3.61347 22.878 22.878 0 0 0-8.08734-1.20452 52.93283 52.93283 0 0 0-9.11976.68829c-2.92517.51623-5.33416.86037-7.05487 1.37659V237.352h10.66834v-30.28437a9.84633 9.84633 0 0 1 2.409-.17206c1.0324 0 1.7207-.17212 2.409-.17212 2.58106 0 4.1297.68829 5.16211 2.23694.86035 1.37659 1.37659 3.95764 1.37659 7.5711v20.82056zm-45.25457-39.74829c-.86036 0-1.37653-.17212-2.23688-.17212a44.59814 44.59814 0 0 0-8.77564.86035 32.62547 32.62547 0 0 0-6.88281 2.06488v37.1673h10.66834v-30.11243a6.7421 6.7421 0 0 1 2.23693-.34411 13.08328 13.08328 0 0 1 2.409-.17206 30.82673 30.82673 0 0 1 4.1297.34412 22.43792 22.43792 0 0 1 3.61347.68829l1.89282-9.11975a6.1056 6.1056 0 0 0-2.23694-.51624 13.4995 13.4995 0 0 0-2.409-.34411c-.86035-.17206-1.72065-.17206-2.40899-.34412zm-26.32679 21.68091v-2.23694c0-6.5387-1.72076-11.70081-4.818-15.14221-3.09729-3.44141-7.399-5.16211-12.73328-5.16211a17.8276 17.8276 0 0 0-6.71069 1.20447 16.786 16.786 0 0 0-5.8504 3.95764 18.02636 18.02636 0 0 0-3.95764 6.53869 24.60663 24.60663 0 0 0-1.72071 9.11975 24.18487 24.18487 0 0 0 1.20447 8.08736 16.44192 16.44192 0 0 0 9.9801 10.66834 23.67962 23.67962 0 0 0 8.9477 1.7207 30.46508 30.46508 0 0 0 3.95764-.172c1.20447-.17206 2.58105-.34411 3.78552-.51623 1.20453-.17206 2.23694-.51618 3.26935-.68824a18.70844 18.70844 0 0 0 2.409-.86035l-1.37659-9.11975a20.623 20.623 0 0 1-4.818 1.37653 32.17578 32.17578 0 0 1-5.85041.51623q-4.64593 0-7.22693-2.06482a6.75335 6.75335 0 0 1-3.09729-5.50628l24.434.34411c.00004-.51625.17216-1.20456.17216-2.06489zm-24.60614-5.50629v-.17206h.17206a16.11431 16.11431 0 0 1 .68823-2.75311 10.51416 10.51416 0 0 1 1.20453-2.409 5.93245 5.93245 0 0 1 2.23694-1.7207 8.33547 8.33547 0 0 1 3.09723-.51623 5.5192 5.5192 0 0 1 3.09729.68829 9.75333 9.75333 0 0 1 2.23694 1.7207c.68829.51624.86035 1.37659 1.20447 2.409a15.493 15.493 0 0 1 .51623 2.75311zm-52.99786-32.3493v54.7185c.86035.34418 2.06482.51624 3.26935.86035 1.37659.17212 2.92517.34418 4.1297.51624l4.1297.51617a31.79557 31.79557 0 0 0 3.95764.17212 25.465 25.465 0 0 0 8.43146-1.37658 17.03666 17.03666 0 0 0 6.19458-4.1297 16.39066 16.39066 0 0 0 3.78552-6.5387 27.38 27.38 0 0 0 1.20453-8.60352 32.338 32.338 0 0 0-1.03247-8.43145 18.31693 18.31693 0 0 0-3.09729-6.36664 12.79023 12.79023 0 0 0-5.33417-4.12964 17.77553 17.77553 0 0 0-7.05493-1.37659 30.82852 30.82852 0 0 0-4.1297.34412 32.11194 32.11194 0 0 0-3.78552 1.20453v-19.272zm13.59363 25.63855a10.58936 10.58936 0 0 1 3.26935-.34412c5.16211 0 7.5711 3.61347 7.5711 10.6684a14.32692 14.32692 0 0 1-2.23694 8.43145q-2.06487 3.09723-6.71075 3.09723a14.80236 14.80236 0 0 1-2.75311-.172c-.86037 0-1.37659-.17206-2.06488-.17206v-20.13238a6.548 6.548 0 0 1 2.92523-1.37652zM401.39557 188.312v33.03753a27.38024 27.38024 0 0 0 .68823 6.88282 13.74865 13.74865 0 0 0 2.409 5.33422 12.95566 12.95566 0 0 0 4.47387 3.44141 18.16541 18.16541 0 0 0 7.227 1.20447 28.38861 28.38861 0 0 0 5.85035-.51618 21.11777 21.11777 0 0 0 4.30182-1.37658l-1.37659-8.77564a22.91651 22.91651 0 0 1-3.26929.86035 23.416 23.416 0 0 1-3.61352.34418c-2.409 0-3.95758-.68829-4.81794-2.06489a12.66639 12.66639 0 0 1-1.20453-5.67835v-13.76565h12.90528v-9.29181H412.064v-11.52875zm-284.08881-7.227v56.095h10.6684v-17.37916a23.84985 23.84985 0 0 1 3.61346 3.61353 44.056 44.056 0 0 1 3.44141 4.47381c1.03241 1.72071 2.23694 3.09729 3.09729 4.818s1.89276 3.09729 2.58105 4.30175h12.3891c-.86035-1.7207-1.89282-3.4414-3.09729-5.50622s-2.58105-3.95764-3.95764-6.02246c-1.37659-2.06488-2.92517-3.95764-4.47381-5.8504-1.72071-1.37659-3.09729-3.09729-4.47388-4.30176l.00006-.00006c2.92517-2.92517 5.50623-5.85041 8.08728-8.60352 2.409-2.75317 4.99-5.67834 7.39905-8.77563H139.848a30.51826 30.51826 0 0 1-2.409 2.92523c-.86037 1.03241-2.06482 2.40893-2.92525 3.61346-1.03241 1.20447-2.23687 2.58106-3.26933 3.78559-1.03241 1.20445-2.23688 2.581-3.26929 3.61346V179.1922z" class="cls-3"/><path d="M185.59961 497.23639l2.65265-6.50745h12.26825l2.65265 6.50745h6.67346l-12.43433-29.22009h-5.88574l-12.43433 29.22009zm8.78674-21.55249l3.8548 9.40839h-7.70953zm30.99965 16.33026a13.31 13.31 0 0 1-8.6618-3.52344l-3.77252 4.51837a18.465 18.465 0 0 0 12.31091 4.64173c6.25751 0 10.65169-3.23316 10.65169-8.994v-.08307c0-5.05615-3.31537-7.17017-9.20119-8.70373-5.01579-1.28516-6.2591-1.9068-6.2591-3.8136v-.08228c0-1.40936 1.28443-2.52844 3.72986-2.52844 2.44538 0 4.97467 1.07715 7.54346 2.8598l3.317-4.8078a16.80022 16.80022 0 0 0-10.77661-3.68866c-5.92688 0-10.155 3.48145-10.155 8.74481v.08307c0 5.7616 3.77094 7.37738 9.6156 8.86975 4.84973 1.24329 5.84467 2.07215 5.84467 3.68872v.083c-.00003 1.6997-1.57547 2.73577-4.18697 2.73577zm27.14476 0a13.31 13.31 0 0 1-8.6618-3.52344l-3.77252 4.51837a18.46522 18.46522 0 0 0 12.311 4.64173c6.25751 0 10.65167-3.23316 10.65167-8.994v-.08307c0-5.05615-3.31543-7.17017-9.20117-8.70373-5.01581-1.28516-6.25909-1.9068-6.25909-3.8136v-.08228c0-1.40936 1.28436-2.52844 3.72979-2.52844s4.97467 1.07715 7.54352 2.8598l3.317-4.8078a16.8002 16.8002 0 0 0-10.77661-3.68866c-5.927 0-10.155 3.48145-10.155 8.74481v.08307c0 5.7616 3.77093 7.37738 9.61554 8.86975 4.84973 1.24329 5.84466 2.07215 5.84466 3.68872v.083c-.00004 1.6997-1.57548 2.73577-4.18699 2.73577zm31.20679 5.71967c8.95288 0 15.46026-6.75574 15.46026-15.00391v-.083c0-8.24817-6.42517-14.9209-15.3764-14.9209-8.95282 0-15.46026 6.75574-15.46026 15.00391v.08307c0 8.24736 6.42358 14.92083 15.3764 14.92083zm-8.70447-15.08692c0-4.97394 3.56531-9.03589 8.70447-9.03589a8.815 8.815 0 0 1 8.792 8.838q-.00036.14048-.00522.28091v.08307c0 4.97308-3.56372 9.03509-8.70288 9.03509a8.81466 8.81466 0 0 1-8.79352-8.83578q.00033-.14122.00519-.28238zm44.47156 15.08692a14.83182 14.83182 0 0 0 11.8949-5.1811l-4.062-4.10308c-2.27935 2.07208-4.31036 3.39843-7.62573 3.39843-4.97467 0-8.415-4.14428-8.415-9.11816v-.083c0-4.97394 3.52417-9.03589 8.415-9.03589 2.90094 0 5.1803 1.24408 7.41852 3.275l4.06195-4.6836c-2.69372-2.65265-5.968-4.47644-11.43933-4.47644a14.74524 14.74524 0 0 0-15.12543 14.355q-.00851.32437-.00268.6489v.08307a14.645 14.645 0 0 0 14.36456 14.92016q.2576.00488.51524.00071zM337.82 468.224h6.384v29.013h-6.384zm21.34443 22.50494h12.26825l2.65259 6.50745h6.67352l-12.43433-29.22009h-5.8858l-12.43427 29.22009h6.50739zm6.13409-15.045l3.8548 9.40839h-7.70959zM389.294 497.236h6.383v-23.128h8.829v-5.884h-24.04v5.884h8.828v23.128zm43.225-5.678h-15.75v-6.092h13.678v-5.679h-13.678v-5.886h15.543v-5.677h-21.884v29.012h22.091v-5.678z" class="cls-2"/></svg>